HIERARCHY
ROOT pelvis
{
  OFFSET 0 100 0
  CHANNELS 6 Xposition Yposition Zposition Zrotation Xrotation Yrotation
  JOINT pelvis_right_femur
  {
    OFFSET -10.78128 -3.44521 -0.5502486
    CHANNELS 3 Zrotation Xrotation Yrotation
    JOINT right_femur_tibia
    {
      OFFSET -0.8047443 -44.0398 -0.1307829
      CHANNELS 3 Zrotation Xrotation Yrotation
      JOINT right_tibia_foot
      {
        OFFSET 3.006224 -47.83518 -5
        CHANNELS 3 Zrotation Xrotation Yrotation
        End Site
        {
          OFFSET 0 -5 15
        }
      }
    }
  }
  JOINT pelvis_left_femur
  {
    OFFSET 10.78128 -3.44521 -0.5502486
    CHANNELS 3 Zrotation Xrotation Yrotation
    JOINT left_femur_tibia
    {
      OFFSET 0.8047443 -44.0398 -0.1307829
      CHANNELS 3 Zrotation Xrotation Yrotation
      JOINT left_tibia_foot
      {
        OFFSET -4.370144 -48.10324 -4.275266
        CHANNELS 3 Zrotation Xrotation Yrotation
        End Site
        {
          OFFSET 0 -5 15
        }
      }
    }
  }
  JOINT pelvis_spine1
  {
    OFFSET 0 6.468898 -3.129235
    CHANNELS 3 Zrotation Xrotation Yrotation
    JOINT spine1
    {
      OFFSET 0 23.15396 4.99043
      CHANNELS 3 Zrotation Xrotation Yrotation
      JOINT spine2
      {
        OFFSET 0 20.79997 -5.064912
        CHANNELS 3 Zrotation Xrotation Yrotation
        JOINT neck
        {
          OFFSET 0 14.38658 9.616178
          CHANNELS 3 Zrotation Xrotation Yrotation
          End Site
          {
            OFFSET 0 20 0
          }
        }
      }
      JOINT right_manubrium
      {
        OFFSET -5.722621 16.35077 3.967754
        CHANNELS 3 Zrotation Xrotation Yrotation
        JOINT right_clavicle
        {
          OFFSET -13.16364 1.694482 -4.693211
          CHANNELS 3 Zrotation Xrotation Yrotation
          JOINT right_humerus
          {
            OFFSET -28.5034 -0.3100689 -2.792744
            CHANNELS 3 Zrotation Xrotation Yrotation
            JOINT right_radius
            {
              OFFSET -25.15693 0.02248979 -1.271978
              CHANNELS 3 Zrotation Xrotation Yrotation
              End Site
              {
                OFFSET -15 0 0
              }
            }
          }
        }
      }
      JOINT left_manubrium
      {
        OFFSET 5.722621 16.35077 3.967754
        CHANNELS 3 Zrotation Xrotation Yrotation
        JOINT left_clavicle
        {
          OFFSET 13.16364 1.694482 -4.693211
          CHANNELS 3 Zrotation Xrotation Yrotation
          JOINT left_humerus
          {
            OFFSET 29.39168 -1.063119 -2.237045
            CHANNELS 3 Zrotation Xrotation Yrotation
            JOINT left_radius
            {
              OFFSET 24.59957 -0.9528479 0.9047498
              CHANNELS 3 Zrotation Xrotation Yrotation
              End Site
              {
                OFFSET 15 -0 -0
              }
            }
          }
        }
      }
    }
  }
}
MOTION
Frames: 20
Frame Time: 0.0416666666667
0 103.5113 0 0.6435649 1.981155 0.5149426 2.652779 -15.1395 6.379526 -9.711829e-07 29.75319 2.463146e-06 -3.926445 -14.19433 -1.249174 -6.817754 4.386107 -20.13609 -2.502786e-08 -1.502423 1.267071e-06 3.606056 -19.12328 21.9654 -3.997018 -2.552186 4.822253 2.509281 8.537628 -7.624037 0.5502575 21.3503 8.160564 3.72083 -24.53829 9.318983 6.888202 -19.76908 11.71638 84.29382 38.58984 -17.24724 -2.045156e-07 -1.731836e-08 17.89645 -10.86962 10.27816 7.9884 5.956339 -19.19236 -0.7060757 -95.81362 29.81979 24.49542 1.096416e-06 4.393705e-07 -17.96448 1.931285 14.00218 12.35362
0.6650485 102.8553 2.740008 0.6697456 1.950283 1.115357 2.559498 -16.6053 6.400137 -1.083904e-06 30.81174 2.472393e-06 -3.666587 -13.65361 -1.541336 -6.939552 6.0162 -20.35126 -2.289914e-07 -1.622 1.278951e-06 3.486121 -19.71196 21.90659 -4.097538 -2.52091 4.602511 2.536327 8.461028 -7.752675 0.5808541 21.44912 8.270971 3.755154 -24.51074 9.468341 6.996026 -19.38347 11.65048 84.95839 38.63635 -17.96382 -1.650196e-07 -3.071999e-08 17.40962 -10.86028 10.34974 7.854328 6.063548 -19.28992 -0.7435092 -95.55871 30.13022 23.61039 8.976144e-07 4.315829e-07 -18.49696 1.878182 13.91215 12.44556
1.310616 102.2218 5.499507 0.6373382 1.952512 1.746922 2.615129 -18.32057 6.30241 -1.195734e-06 30.89466 2.566311e-06 -3.695114 -13.09509 -1.788422 -6.962062 7.746826 -20.4577 -3.524423e-07 -1.298172 1.145937e-06 3.446966 -20.18986 21.72464 -4.113299 -2.513306 4.364645 2.610238 8.450287 -7.93612 0.5938326 21.50156 8.331556 3.781311 -24.53797 9.545221 6.996449 -19.04676 11.60553 85.6993 38.56245 -18.841 -1.277319e-07 -4.48868e-08 16.74627 -10.7351 10.34917 7.627419 6.176391 -19.57 -0.8562092 -95.07494 30.23863 22.6184 7.583164e-07 4.309754e-07 -19.25538 2.068078 13.96664 12.20488
1.918498 101.5955 8.264893 0.5425625 2.000842 2.369063 2.827468 -20.11108 6.109655 -1.282327e-06 29.90308 2.725291e-06 -4.02014 -12.60726 -1.953977 -6.881858 9.37639 -20.44504 -3.674651e-07 -0.5102842 8.664872e-07 3.493755 -20.49276 21.43334 -4.037252 -2.533415 4.139288 2.729118 8.508678 -8.159977 0.5855418 21.49688 8.334783 3.797769 -24.62646 9.538131 6.893964 -18.79876 11.59205 86.43467 38.3913 -19.79389 -9.930607e-08 -5.7257e-08 15.97467 -10.48926 10.27692 7.322798 6.282769 -20.01275 -1.028178 -94.42612 30.12548 21.64137 7.044912e-07 4.375617e-07 -20.17822 2.491127 14.16336 11.64726
2.468106 100.9666 11.03288 0.3993471 2.07848 2.951142 3.167431 -22.06728 5.85422 -1.339901e-06 28.06928 2.917287e-06 -4.560751 -12.14835 -2.078172 -6.725793 11.03571 -20.34004 -2.968854e-07 0.7457613 4.534363e-07 3.581465 -20.68111 21.03449 -3.889395 -2.571375 3.910559 2.888273 8.618598 -8.427819 0.5625914 21.45384 8.297709 3.807805 -24.75869 9.471382 6.716694 -18.58734 11.6014 87.22135 38.14026 -20.87077 -7.710833e-08 -6.806919e-08 15.06852 -10.14848 10.15884 6.942577 6.388977 -20.59822 -1.251214 -93.62862 29.84914 20.60565 7.094869e-07 4.479022e-07 -21.28983 3.097813 14.45493 10.84244
2.948708 100.3253 13.79308 0.217221 2.186017 3.462302 3.602036 -23.85085 5.5691 -1.346e-06 25.49547 3.116122e-06 -5.270423 -11.81341 -2.119843 -6.503806 12.40679 -20.13103 -1.238469e-07 2.324183 -5.289577e-08 3.708258 -20.67852 20.56336 -3.677333 -2.624997 3.719291 3.067052 8.764754 -8.694866 0.5252098 21.35128 8.211431 3.80377 -24.9072 9.334145 6.475835 -18.45152 11.62812 87.82924 37.83909 -21.85346 -6.716817e-08 -7.453594e-08 14.15845 -9.734867 9.994872 6.531279 6.470245 -21.23628 -1.493036 -92.72123 29.41725 19.67329 7.893075e-07 4.592438e-07 -22.41106 3.825404 14.79911 9.866388
3.352688 99.67639 16.57212 0.04111847 2.241485 3.892201 4.053739 -25.48501 5.312099 -1.301326e-06 22.81009 3.23444e-06 -5.934683 -11.5117 -2.187145 -6.270379 13.65442 -19.83625 8.994124e-08 4.322933 -6.056916e-07 3.731039 -20.57734 20.03252 -3.44633 -2.659513 3.545844 3.238117 8.916262 -8.948338 0.4933419 21.25725 8.110543 3.789189 -25.01253 9.181666 6.223984 -18.29293 11.65744 88.4306 37.49197 -22.81996 -6.429403e-08 -7.611e-08 13.23218 -9.382783 9.868541 6.134727 6.531124 -21.85844 -1.741109 -91.81372 28.96356 18.7259 8.783567e-07 4.640117e-07 -23.53345 4.505839 15.07621 8.940919
3.684459 99.03054 19.40621 -0.1011971 2.20242 4.239915 4.459703 -26.73931 5.100051 -1.216058e-06 20.37974 3.245455e-06 -6.453866 -11.24068 -2.293217 -6.053118 14.63433 -19.45631 3.179513e-07 6.603284 -1.141811e-06 3.610621 -20.37196 19.48562 -3.221313 -2.660493 3.406108 3.372736 9.056571 -9.150197 0.475715 21.19176 8.002033 3.760671 -25.03558 9.029406 5.976715 -18.11377 11.68026 88.96086 37.09853 -23.6487 -6.730209e-08 -7.242432e-08 12.3821 -9.175014 9.806647 5.810571 6.558422 -22.38135 -1.978081 -90.9844 28.53687 17.83232 9.544814e-07 4.59803e-07 -24.5153 5.034215 15.23379 8.195759
3.958417 98.41497 22.37181 -0.1603311 1.976663 4.520244 4.743464 -27.43483 4.991548 -1.08433e-06 18.80007 3.034148e-06 -6.596776 -10.96731 -2.533628 -5.898463 15.31801 -18.97052 5.090206e-07 9.337849 -1.6077e-06 3.180001 -20.08017 18.93774 -3.041176 -2.58788 3.30608 3.433273 9.157068 -9.265493 0.4931277 21.21851 7.910784 3.717173 -24.90102 8.921661 5.783795 -17.83865 11.68544 89.51472 36.66027 -24.32975 -7.607852e-08 -6.033687e-08 11.65247 -9.270299 9.906549 5.626925 6.543444 -22.7036 -2.182056 -90.36294 28.26946 16.94216 9.666353e-07 4.410015e-07 -25.27578 5.19974 15.14551 7.897402
4.197822 97.86286 25.54187 -0.1269338 1.557407 4.750434 4.880051 -27.34302 4.988964 -8.991501e-07 18.14216 2.577546e-06 -6.322649 -10.7376 -2.892618 -5.805126 15.50629 -18.34977 6.620788e-07 12.45814 -1.974714e-06 2.426246 -19.63872 18.4003 -2.909079 -2.435425 3.267328 3.402059 9.204007 -9.259561 0.5478585 21.31602 7.826546 3.650575 -24.57258 8.847297 5.646658 -17.47609 11.66114 89.90349 36.18955 -24.70819 -9.385571e-08 -3.7917e-08 11.11225 -9.686257 10.16943 5.610774 6.469387 -22.75469 -2.334415 -89.90002 28.17316 16.10986 9.206457e-07 4.076163e-07 -25.69167 4.949807 14.7798 8.099044
4.421818 97.41076 28.99179 -0.01444328 0.9561328 4.937712 4.919239 -26.44059 5.094037 -6.308556e-07 18.12138 1.855773e-06 -5.676674 -10.61842 -3.362018 -5.740966 15.12555 -17.55242 8.250213e-07 16.21521 -2.303116e-06 1.342954 -18.97751 17.85107 -2.801241 -2.205214 3.30495 3.290673 9.213947 -9.141981 0.6354386 21.47827 7.737751 3.560055 -24.06459 8.789649 5.555752 -17.04333 11.62187 90.16058 35.68957 -24.82509 -1.270463e-07 -1.718357e-09 10.74533 -10.40583 10.59889 5.751222 6.33343 -22.56926 -2.439711 -89.60354 28.21872 15.35973 8.452432e-07 3.585579e-07 -25.81296 4.321105 14.14553 8.757511
4.638714 97.09492 32.79006 0.1317696 0.2360604 5.056921 4.993844 -24.61915 5.320311 -2.218113e-07 17.95109 8.569097e-07 -4.813216 -10.83051 -3.875178 -5.621773 13.89882 -16.50367 1.154185e-06 21.09895 -2.757704e-06 -0.03357746 -17.91837 17.26312 -2.6578 -1.915605 3.473099 3.133866 9.232187 -8.936533 0.7378341 21.6791 7.61579 3.447132 -23.44372 8.702286 5.492692 -16.62857 11.61322 90.32667 35.20149 -24.7399 -1.943178e-07 5.701306e-08 10.56478 -11.349 11.18722 6.017729 6.126744 -22.2378 -2.497823 -89.56019 28.31967 14.86641 8.320451e-07 2.919255e-07 -25.7335 3.424565 13.29906 9.747774
4.842806 96.94175 36.95515 0.2543208 -0.4685891 5.06258 5.18903 -22.05289 5.637691 3.051266e-07 16.96119 -3.125478e-07 -3.930241 -11.48032 -4.324415 -5.37126 11.81842 -15.22733 1.785341e-06 26.98767 -3.481979e-06 -1.538275 -16.41766 16.63009 -2.441421 -1.606538 3.775044 2.974287 9.268647 -8.67682 0.8317841 21.8262 7.437974 3.315277 -22.77846 8.539919 5.440419 -16.28033 11.64044 90.20243 34.79784 -24.44462 -3.022793e-07 1.386672e-07 10.5284 -12.30456 11.84624 6.318921 5.857708 -21.83374 -2.500923 -89.57869 28.38309 14.66666 9.483316e-07 2.139266e-07 -25.53845 2.44478 12.34304 10.83604
5.041707 96.94758 41.48664 0.3569248 -1.175667 4.915039 5.427713 -18.50951 5.970044 8.798671e-07 15.44429 -1.525489e-06 -3.132074 -12.54037 -4.623741 -4.960983 8.681598 -13.80505 2.720213e-06 33.23332 -4.417373e-06 -3.009066 -14.53454 16.12615 -2.176214 -1.299587 4.234623 2.794421 9.355959 -8.340546 0.9122971 21.96595 7.211291 3.174758 -22.13856 8.316162 5.363478 -16.16444 11.72966 89.89991 34.43822 -23.83316 -4.416053e-07 2.343865e-07 10.82912 -13.34393 12.52392 6.748193 5.526619 -21.36559 -2.46204 -89.97665 28.36442 15.08609 1.188666e-06 1.30213e-07 -25.04468 1.434914 11.37707 11.98192
5.2425 97.08685 46.32085 0.4160246 -1.795702 4.591756 5.655691 -14.31794 6.221881 1.400253e-06 13.54321 -2.569281e-06 -2.574175 -13.83967 -4.685313 -4.391522 4.782304 -12.38665 3.864739e-06 38.79268 -5.456397e-06 -4.200592 -12.47948 15.81879 -1.889435 -1.039611 4.793525 2.606519 9.479428 -7.945226 0.9664468 22.03781 6.942596 3.03342 -21.58208 8.031592 5.231007 -16.32522 11.85052 89.23604 34.11876 -22.82609 -5.919502e-07 3.276904e-07 11.45875 -14.31438 13.07908 7.25382 5.161055 -20.86044 -2.393093 -90.55248 28.19436 16.09436 1.527609e-06 5.660807e-08 -24.20688 0.5577771 10.54801 12.97065
5.44929 97.31022 51.36208 0.429054 -2.295287 4.097135 5.824665 -9.999635 6.324904 1.793112e-06 11.62636 -3.295068e-06 -2.33063 -15.10833 -4.516998 -3.730906 0.6662395 -11.12059 4.979382e-06 42.85236 -6.374416e-06 -4.970009 -10.53681 15.72282 -1.619595 -0.8539335 5.362886 2.42128 9.625428 -7.52935 0.992152 22.03795 6.658768 2.902514 -21.15266 7.717946 5.025102 -16.73862 11.97355 88.28187 33.79007 -21.51517 -7.268636e-07 4.018715e-07 12.32113 -15.13428 13.42337 7.783449 4.802691 -20.37386 -2.327051 -91.16485 27.854 17.50794 1.897884e-06 6.316662e-09 -23.09201 -0.07809786 9.970019 13.66024
5.680578 97.55316 56.50529 0.4216375 -2.690087 3.462056 5.858151 -5.605383 6.280031 2.05435e-06 10.28057 -3.666062e-06 -2.360668 -16.22136 -4.128322 -3.064629 -3.541039 -10.11974 5.70512e-06 44.76416 -6.782971e-06 -5.269294 -8.880608 15.89989 -1.415986 -0.7506366 5.918704 2.219175 9.779081 -7.081952 0.9946321 22.00166 6.388352 2.789085 -20.86602 7.415538 4.757338 -17.42736 12.08558 87.10771 33.43312 -19.86421 -8.308725e-07 4.471967e-07 13.48953 -15.84656 13.532 8.378303 4.46703 -19.87192 -2.262233 -91.92332 27.38233 19.36465 2.245636e-06 -1.337804e-08 -21.59633 -0.5013151 9.672609 14.09813
5.953262 97.74637 61.63405 0.3910749 -2.957596 2.726591 5.771964 -1.50396 6.066749 2.168727e-06 9.555793 -3.629054e-06 -2.707074 -17.03471 -3.54643 -2.468588 -7.478998 -9.450234 5.839371e-06 44.28791 -6.495447e-06 -5.0543 -7.637243 16.2914 -1.285177 -0.7421977 6.403638 2.014473 9.9311 -6.634864 0.972713 21.91291 6.139967 2.694884 -20.7324 7.131834 4.414761 -18.33969 12.16356 85.74373 33.00816 -17.97093 -8.905361e-07 4.580763e-07 14.84449 -16.37811 13.36663 8.975551 4.177201 -19.39961 -2.222812 -92.65004 26.76294 21.46853 2.537579e-06 1.537732e-09 -19.82396 -0.6456079 9.706958 14.18821
6.29449 97.81936 66.63273 0.3583877 -3.095081 1.947358 5.536249 2.156285 5.721591 2.137914e-06 9.767341 -3.195161e-06 -3.308865 -17.49074 -2.804527 -2.045801 -10.97178 -9.206629 5.327012e-06 41.21545 -5.444619e-06 -4.335168 -6.91188 16.90481 -1.255977 -0.8291357 6.793731 1.804392 10.06217 -6.196403 0.9311679 21.79072 5.937899 2.625288 -20.75387 6.898184 4.027551 -19.43606 12.19506 84.26422 32.5335 -15.88908 -8.979994e-07 4.330522e-07 16.3719 -16.73076 12.93897 9.572416 3.948983 -18.94282 -2.200163 -93.36784 26.05827 23.74974 2.737948e-06 4.973753e-08 -17.79117 -0.5411584 10.0579 13.98093
6.724281 97.72951 71.41541 0.3318351 -3.101223 1.171578 5.194972 5.301093 5.342297 2.001981e-06 10.68578 -2.51849e-06 -4.004846 -17.69379 -1.983809 -1.809417 -13.95605 -9.305035 4.541117e-06 36.36561 -4.042017e-06 -3.305337 -6.587225 17.62384 -1.309384 -0.9784533 7.090688 1.599249 10.13821 -5.776389 0.8777256 21.60942 5.780132 2.57286 -20.85139 6.710442 3.652896 -20.55409 12.16489 82.59171 32.06337 -13.71254 -8.687264e-07 3.86308e-07 17.93144 -16.88201 12.34594 10.11088 3.773307 -18.4646 -2.162186 -93.88627 25.37443 25.96933 2.859082e-06 1.191953e-07 -15.6474 -0.2932158 10.57221 13.59956
